<svg xmlns="http://www.w3.org/2000/svg"  viewBox="0 0 30 30" width="240px" height="240px"><path fill="#f78f8f" d="M15,28.5c-5.3,0-9.5-9-9.5-16.5C5.5,5.3,9,1.5,15,1.5s9.5,3.8,9.5,10.5C24.5,19.5,20.3,28.5,15,28.5 z"/><path fill="#c74343" d="M15,2c5.7,0,9,3.6,9,10c0,7.2-4.2,16-9,16s-9-8.8-9-16C6,5.6,9.3,2,15,2 M15,1C9.5,1,5,4.3,5,12 s4.5,17,10,17s10-9.3,10-17S20.5,1,15,1L15,1z"/><path fill="#c74343" d="M14.5,1v27.9c0.2,0,0.3,0.1,0.5,0.1s0.3,0,0.5-0.1V1c-0.2,0-0.3,0-0.5,0S14.7,1,14.5,1z"/><path fill="#c74343" d="M21.4,3L8.6,24.6c0.2,0.3,0.4,0.6,0.6,0.9L22.2,3.7C22,3.5,21.7,3.3,21.4,3z"/><path fill="#c74343" d="M7.8 3.7l12.9 21.7c.2-.3.4-.6.6-.9L8.5 3.1C8.3 3.3 8 3.5 7.8 3.7zM21.8 12.5c-.1 0-3-1.1-3.3-4-2.8-.2-3.9-2.2-4-2.2l.9-.5c0 .1 1 1.7 3.6 1.7h.5V8c0 2.6 2.6 3.5 2.7 3.5L21.8 12.5z"/><path fill="#c74343" d="M8.2 12.5l-.3-.9c.1 0 2.7-1 2.7-3.5V7.5H11c2.6 0 3.6-1.7 3.6-1.7l.9.5c0 .1-1.2 2-4 2.2C11.2 11.4 8.3 12.4 8.2 12.5zM15.4 25.2l-.9-.5c.1-.1 1.3-2.3 4.4-2.3h1v1h-1C16.4 23.5 15.4 25.2 15.4 25.2z"/><path fill="#c74343" d="M14.6,25.2c0-0.1-1-1.7-3.6-1.7h-1v-1h1c3.1,0,4.4,2.2,4.4,2.3L14.6,25.2z"/><path fill="#66798f" d="M6 11.6c0 .8.1 1.7.3 2.5.3 2 1 3.7 1.8 5.1.5.8 1.7 2 1.7 2l0 0c0 0 3.3-.9 4.2-5.1l.1-.7-.6-.3C12 14.4 8.3 12.2 8 9.9c0 0-.8-2.5 0-4.8C6.8 6.7 6.1 8.9 6 11.6zM24 11.6c0 .8-.1 1.7-.3 2.5-.3 2-1 3.7-1.8 5.1-.5.8-1.7 2-1.7 2l0 0c0 0-3.3-.9-4.2-5.1l-.1-.7.6-.3c1.4-.7 5.1-2.9 5.4-5.2 0 0 .8-2.5 0-4.8C23.2 6.7 23.9 8.9 24 11.6z"/><path fill="#fff" d="M10 20c-2-2-3-5.5-3-10 .5 3.3 6 6 6 6S12.7 18.7 10 20zM17 16c0 0 5.5-2.7 6-6 0 4.5-1 8-3 10C17.3 18.7 17 16 17 16z"/></svg>